<svg aria-roledescription="flowchart-v2" role="graphics-document document" viewBox="0 -0.84375 790.59375 259.02734375" style="max-width: 790.59375px;" class="flowchart" xmlns="http://www.w3.org/2000/svg" width="100%" id="dER04"><style>#dER04{font-family:"trebuchet ms",verdana,arial,sans-serif;font-size:16px;fill:#000000;}#dER04 .error-icon{fill:#552222;}#dER04 .error-text{fill:#552222;stroke:#552222;}#dER04 .edge-thickness-normal{stroke-width:1px;}#dER04 .edge-thickness-thick{stroke-width:3.5px;}#dER04 .edge-pattern-solid{stroke-dasharray:0;}#dER04 .edge-thickness-invisible{stroke-width:0;fill:none;}#dER04 .edge-pattern-dashed{stroke-dasharray:3;}#dER04 .edge-pattern-dotted{stroke-dasharray:2;}#dER04 .marker{fill:#666;stroke:#666;}#dER04 .marker.cross{stroke:#666;}#dER04 svg{font-family:"trebuchet ms",verdana,arial,sans-serif;font-size:16px;}#dER04 p{margin:0;}#dER04 .label{font-family:"trebuchet ms",verdana,arial,sans-serif;color:#000000;}#dER04 .cluster-label text{fill:#333;}#dER04 .cluster-label span{color:#333;}#dER04 .cluster-label span p{background-color:transparent;}#dER04 .label text,#dER04 span{fill:#000000;color:#000000;}#dER04 .node rect,#dER04 .node circle,#dER04 .node ellipse,#dER04 .node polygon,#dER04 .node path{fill:#eee;stroke:#999;stroke-width:1px;}#dER04 .rough-node .label text,#dER04 .node .label text,#dER04 .image-shape .label,#dER04 .icon-shape .label{text-anchor:middle;}#dER04 .node .katex path{fill:#000;stroke:#000;stroke-width:1px;}#dER04 .rough-node .label,#dER04 .node .label,#dER04 .image-shape .label,#dER04 .icon-shape .label{text-align:center;}#dER04 .node.clickable{cursor:pointer;}#dER04 .root .anchor path{fill:#666!important;stroke-width:0;stroke:#666;}#dER04 .arrowheadPath{fill:#333333;}#dER04 .edgePath .path{stroke:#666;stroke-width:2.0px;}#dER04 .flowchart-link{stroke:#666;fill:none;}#dER04 .edgeLabel{background-color:white;text-align:center;}#dER04 .edgeLabel p{background-color:white;}#dER04 .edgeLabel rect{opacity:0.5;background-color:white;fill:white;}#dER04 .labelBkg{background-color:rgba(255, 255, 255, 0.5);}#dER04 .cluster rect{fill:hsl(0, 0%, 98.9215686275%);stroke:#707070;stroke-width:1px;}#dER04 .cluster text{fill:#333;}#dER04 .cluster span{color:#333;}#dER04 div.mermaidTooltip{position:absolute;text-align:center;max-width:200px;padding:2px;font-family:"trebuchet ms",verdana,arial,sans-serif;font-size:12px;background:hsl(-160, 0%, 93.3333333333%);border:1px solid #707070;border-radius:2px;pointer-events:none;z-index:100;}#dER04 .flowchartTitleText{text-anchor:middle;font-size:18px;fill:#000000;}#dER04 rect.text{fill:none;stroke-width:0;}#dER04 .icon-shape,#dER04 .image-shape{background-color:white;text-align:center;}#dER04 .icon-shape p,#dER04 .image-shape p{background-color:white;padding:2px;}#dER04 .icon-shape rect,#dER04 .image-shape rect{opacity:0.5;background-color:white;fill:white;}#dER04 :root{--mermaid-font-family:"trebuchet ms",verdana,arial,sans-serif;}#dER04 .oculto rect{fill:none!important;stroke:none!important;color:none!important;}#dER04 .oculto polygon{fill:none!important;stroke:none!important;color:none!important;}#dER04 .oculto ellipse{fill:none!important;stroke:none!important;color:none!important;}#dER04 .oculto circle{fill:none!important;stroke:none!important;color:none!important;}#dER04 .oculto path{fill:none!important;stroke:none!important;color:none!important;}#dER04 .oculto tspan{fill:none!important;}</style><g><marker orient="auto" markerHeight="8" markerWidth="8" markerUnits="userSpaceOnUse" refY="5" refX="5" viewBox="0 0 10 10" class="marker flowchart-v2" id="dER04_flowchart-v2-pointEnd"><path style="stroke-width: 1; stroke-dasharray: 1, 0;" class="arrowMarkerPath" d="M 0 0 L 10 5 L 0 10 z"></path></marker><marker orient="auto" markerHeight="8" markerWidth="8" markerUnits="userSpaceOnUse" refY="5" refX="4.5" viewBox="0 0 10 10" class="marker flowchart-v2" id="dER04_flowchart-v2-pointStart"><path style="stroke-width: 1; stroke-dasharray: 1, 0;" class="arrowMarkerPath" d="M 0 5 L 10 10 L 10 0 z"></path></marker><marker orient="auto" markerHeight="11" markerWidth="11" markerUnits="userSpaceOnUse" refY="5" refX="11" viewBox="0 0 10 10" class="marker flowchart-v2" id="dER04_flowchart-v2-circleEnd"><circle style="stroke-width: 1; stroke-dasharray: 1, 0;" class="arrowMarkerPath" r="5" cy="5" cx="5"></circle></marker><marker orient="auto" markerHeight="11" markerWidth="11" markerUnits="userSpaceOnUse" refY="5" refX="-1" viewBox="0 0 10 10" class="marker flowchart-v2" id="dER04_flowchart-v2-circleStart"><circle style="stroke-width: 1; stroke-dasharray: 1, 0;" class="arrowMarkerPath" r="5" cy="5" cx="5"></circle></marker><marker orient="auto" markerHeight="11" markerWidth="11" markerUnits="userSpaceOnUse" refY="5.2" refX="12" viewBox="0 0 11 11" class="marker cross flowchart-v2" id="dER04_flowchart-v2-crossEnd"><path style="stroke-width: 2; stroke-dasharray: 1, 0;" class="arrowMarkerPath" d="M 1,1 l 9,9 M 10,1 l -9,9"></path></marker><marker orient="auto" markerHeight="11" markerWidth="11" markerUnits="userSpaceOnUse" refY="5.2" refX="-1" viewBox="0 0 11 11" class="marker cross flowchart-v2" id="dER04_flowchart-v2-crossStart"><path style="stroke-width: 2; stroke-dasharray: 1, 0;" class="arrowMarkerPath" d="M 1,1 l 9,9 M 10,1 l -9,9"></path></marker><g class="root"><g class="clusters"></g><g class="edgePaths"><path marker-end="url(#dER04_flowchart-v2-pointEnd)" style="" class="edge-thickness-normal edge-pattern-solid edge-thickness-normal edge-pattern-solid flowchart-link" id="L_inicio_q0_0" d="M32,104.156L34.333,104.156C36.667,104.156,41.333,104.156,45.333,104.156C49.333,104.156,52.667,104.156,54.333,104.156L56,104.156"></path><path marker-end="url(#dER04_flowchart-v2-pointEnd)" style="" class="edge-thickness-normal edge-pattern-dotted edge-thickness-normal edge-pattern-solid flowchart-link" id="L_q0_q1_1" d="M75.745,93.241L80.34,80.977C84.934,68.713,94.123,44.184,103.994,31.92C113.865,19.656,124.417,19.656,137.169,19.656C149.922,19.656,164.875,19.656,177.219,19.656C189.563,19.656,199.297,19.656,204.164,19.656L209.031,19.656"></path><path marker-end="url(#dER04_flowchart-v2-pointEnd)" style="" class="edge-thickness-normal edge-pattern-dotted edge-thickness-normal edge-pattern-solid flowchart-link" id="L_q0_q7_2" d="M78.898,113.29L82.967,118.422C87.036,123.554,95.174,133.818,101.91,138.95C108.646,144.082,113.979,144.082,116.646,144.082L119.313,144.082"></path><path marker-end="url(#dER04_flowchart-v2-pointEnd)" style="" class="edge-thickness-normal edge-pattern-solid edge-thickness-normal edge-pattern-solid flowchart-link" id="L_q1_q2_3" d="M236.344,19.656L241.878,19.656C247.411,19.656,258.479,19.656,268.88,19.656C279.281,19.656,289.016,19.656,293.883,19.656L298.75,19.656"></path><path marker-end="url(#dER04_flowchart-v2-pointEnd)" style="" class="edge-thickness-normal edge-pattern-solid edge-thickness-normal edge-pattern-solid flowchart-link" id="L_q2_q3_4" d="M326.063,19.656L331.596,19.656C337.13,19.656,348.198,19.656,359.298,19.656C370.398,19.656,381.531,19.656,387.098,19.656L392.664,19.656"></path><path marker-end="url(#dER04_flowchart-v2-pointEnd)" style="" class="edge-thickness-normal edge-pattern-solid edge-thickness-normal edge-pattern-solid flowchart-link" id="L_q3_q4_5" d="M419.977,19.656L426.21,19.656C432.443,19.656,444.909,19.656,456.708,19.656C468.508,19.656,479.641,19.656,485.207,19.656L490.773,19.656"></path><path marker-end="url(#dER04_flowchart-v2-pointEnd)" style="" class="edge-thickness-normal edge-pattern-solid edge-thickness-normal edge-pattern-solid flowchart-link" id="L_q4_q5_6" d="M518.086,19.656L522.368,19.656C526.651,19.656,535.216,19.656,543.635,19.656C552.055,19.656,560.328,19.656,564.465,19.656L568.602,19.656"></path><path marker-end="url(#dER04_flowchart-v2-pointEnd)" style="" class="edge-thickness-normal edge-pattern-solid edge-thickness-normal edge-pattern-solid flowchart-link" id="L_q5_q6_7" d="M595.914,19.656L602.63,19.656C609.346,19.656,622.779,19.656,635.023,19.656C647.268,19.656,658.326,19.656,663.854,19.656L669.383,19.656"></path><path marker-end="url(#dER04_flowchart-v2-pointEnd)" style="" class="edge-thickness-normal edge-pattern-dotted edge-thickness-normal edge-pattern-solid flowchart-link" id="L_q6_q15_8" d="M696.695,19.656L700.728,19.656C704.76,19.656,712.826,19.656,721.623,28.054C730.42,36.453,739.949,53.249,744.714,61.647L749.479,70.045"></path><path marker-end="url(#dER04_flowchart-v2-pointEnd)" style="" class="edge-thickness-normal edge-pattern-solid edge-thickness-normal edge-pattern-solid flowchart-link" id="L_q7_q8_9" d="M146.625,144.082L152.159,144.082C157.693,144.082,168.76,144.082,179.161,144.082C189.563,144.082,199.297,144.082,204.164,144.082L209.031,144.082"></path><path marker-end="url(#dER04_flowchart-v2-pointEnd)" style="" class="edge-thickness-normal edge-pattern-solid edge-thickness-normal edge-pattern-solid flowchart-link" id="L_q8_q9_10" d="M236.344,144.082L241.878,144.082C247.411,144.082,258.479,144.082,268.88,144.082C279.281,144.082,289.016,144.082,293.883,144.082L298.75,144.082"></path><path marker-end="url(#dER04_flowchart-v2-pointEnd)" style="" class="edge-thickness-normal edge-pattern-solid edge-thickness-normal edge-pattern-solid flowchart-link" id="L_q9_q10_11" d="M326.063,144.082L331.596,144.082C337.13,144.082,348.198,144.082,358.599,144.082C369,144.082,378.734,144.082,383.602,144.082L388.469,144.082"></path><path marker-end="url(#dER04_flowchart-v2-pointEnd)" style="" class="edge-thickness-normal edge-pattern-solid edge-thickness-normal edge-pattern-solid flowchart-link" id="L_q10_q11_12" d="M424.172,144.082L429.706,144.082C435.24,144.082,446.307,144.082,456.708,144.082C467.109,144.082,476.844,144.082,481.711,144.082L486.578,144.082"></path><path marker-end="url(#dER04_flowchart-v2-pointEnd)" style="" class="edge-thickness-normal edge-pattern-dotted edge-thickness-normal edge-pattern-solid flowchart-link" id="L_q11_q15_13" d="M513.039,129.674L518.163,118.504C523.286,107.335,533.534,84.996,545.404,73.826C557.273,62.656,570.766,62.656,586.171,62.656C601.576,62.656,618.893,62.656,635.69,62.656C652.487,62.656,668.763,62.656,682.876,62.656C696.99,62.656,708.94,62.656,718.347,65.092C727.753,67.529,734.616,72.401,738.047,74.837L741.478,77.273"></path><path marker-end="url(#dER04_flowchart-v2-pointEnd)" style="" class="edge-thickness-normal edge-pattern-solid edge-thickness-normal edge-pattern-solid flowchart-link" id="L_q11_q12_14" d="M517.741,132.977L522.081,128.716C526.421,124.454,535.101,115.932,542.879,111.671C550.656,107.41,557.531,107.41,560.969,107.41L564.406,107.41"></path><path marker-end="url(#dER04_flowchart-v2-pointEnd)" style="" class="edge-thickness-normal edge-pattern-solid edge-thickness-normal edge-pattern-solid flowchart-link" id="L_q11_q13_15" d="M518.035,154.88L522.326,158.873C526.617,162.865,535.199,170.851,542.928,174.843C550.656,178.836,557.531,178.836,560.969,178.836L564.406,178.836"></path><path marker-end="url(#dER04_flowchart-v2-pointEnd)" style="" class="edge-thickness-normal edge-pattern-solid edge-thickness-normal edge-pattern-solid flowchart-link" id="L_q11_q14_16" d="M512.198,158.847L517.462,172.32C522.726,185.792,533.254,212.738,545.264,226.211C557.273,239.684,570.766,239.684,586.171,239.684C601.576,239.684,618.893,239.684,632.759,236.957C646.625,234.23,657.039,228.776,662.246,226.05L667.453,223.323"></path><path marker-end="url(#dER04_flowchart-v2-pointEnd)" style="" class="edge-thickness-normal edge-pattern-dotted edge-thickness-normal edge-pattern-solid flowchart-link" id="L_q12_q15_17" d="M599.791,104.248L605.861,103.012C611.931,101.776,624.071,99.304,638.279,98.068C652.487,96.832,668.763,96.832,682.876,96.832C696.99,96.832,708.94,96.832,717.615,96.49C726.29,96.149,731.688,95.465,734.388,95.123L737.087,94.781"></path><path marker-end="url(#dER04_flowchart-v2-pointEnd)" style="" class="edge-thickness-normal edge-pattern-solid edge-thickness-normal edge-pattern-solid flowchart-link" id="L_q12_q14_18" d="M598.962,113.332L605.17,115.832C611.378,118.332,623.795,123.332,636.504,137.253C649.214,151.175,662.216,174.018,668.717,185.439L675.219,196.861"></path><path marker-end="url(#dER04_flowchart-v2-pointEnd)" style="" class="edge-thickness-normal edge-pattern-dotted edge-thickness-normal edge-pattern-solid flowchart-link" id="L_q13_q15_19" d="M599.145,173.39L605.322,171.131C611.5,168.871,623.856,164.352,638.171,162.092C652.487,159.832,668.763,159.832,682.876,159.832C696.99,159.832,708.94,159.832,719.595,152.023C730.25,144.214,739.609,128.596,744.288,120.786L748.968,112.977"></path><path marker-end="url(#dER04_flowchart-v2-pointEnd)" style="" class="edge-thickness-normal edge-pattern-solid edge-thickness-normal edge-pattern-solid flowchart-link" id="L_q13_q14_20" d="M598.962,184.757L605.17,187.257C611.378,189.758,623.795,194.758,634.967,198.717C646.138,202.677,656.066,205.595,661.03,207.055L665.994,208.514"></path><path marker-end="url(#dER04_flowchart-v2-pointEnd)" style="" class="edge-thickness-normal edge-pattern-dotted edge-thickness-normal edge-pattern-solid flowchart-link" id="L_q14_q15_21" d="M700.891,214.113L704.224,214.113C707.557,214.113,714.224,214.113,723.055,197.633C731.886,181.154,742.882,148.194,748.38,131.714L753.878,115.234"></path></g><g class="edgeLabels"><g><rect style="stroke: none" class="background"></rect></g><g class="edgeLabel"><g transform="translate(0, 0)" class="label"><text y="-10.1"><tspan dy="1.1em" y="-0.1em" x="0" class="text-outer-tspan"></tspan></text></g></g><g transform="translate(134.96875, 19.65625)" class="edgeLabel"><g transform="translate(-6, -11.5)" class="label"><g><rect height="23" width="12" y="-1" x="-2" style="" class="background"></rect><text style="" y="-10.1"><tspan dy="1.1em" y="-0.1em" x="0" class="text-outer-tspan"><tspan font-weight="normal" class="text-inner-tspan" font-style="normal">ε</tspan></tspan></text></g></g></g><g transform="translate(103.3125, 144.08203125)" class="edgeLabel"><g transform="translate(-6, -11.5)" class="label"><g><rect height="23" width="12" y="-1" x="-2" style="" class="background"></rect><text style="" y="-10.1"><tspan dy="1.1em" y="-0.1em" x="0" class="text-outer-tspan"><tspan font-weight="normal" class="text-inner-tspan" font-style="normal">ε</tspan></tspan></text></g></g></g><g transform="translate(269.546875, 19.65625)" class="edgeLabel"><g transform="translate(-7, -11.5)" class="label"><g><rect height="23" width="14" y="-1" x="-2" style="" class="background"></rect><text style="" y="-10.1"><tspan dy="1.1em" y="-0.1em" x="0" class="text-outer-tspan"><tspan font-weight="normal" class="text-inner-tspan" font-style="normal">C</tspan></tspan></text></g></g></g><g transform="translate(359.265625, 19.65625)" class="edgeLabel"><g transform="translate(-7.5, -11.5)" class="label"><g><rect height="23" width="15" y="-1" x="-3" style="" class="background"></rect><text style="" y="-10.1"><tspan dy="1.1em" y="-0.1em" x="0" class="text-outer-tspan"><tspan font-weight="normal" class="text-inner-tspan" font-style="normal">A</tspan></tspan></text></g></g></g><g transform="translate(457.375, 19.65625)" class="edgeLabel"><g transform="translate(-7.5, -11.5)" class="label"><g><rect height="23" width="15" y="-1" x="-3" style="" class="background"></rect><text style="" y="-10.1"><tspan dy="1.1em" y="-0.1em" x="0" class="text-outer-tspan"><tspan font-weight="normal" class="text-inner-tspan" font-style="normal">V</tspan></tspan></text></g></g></g><g transform="translate(543.78125, 19.65625)" class="edgeLabel"><g transform="translate(-7.5, -11.5)" class="label"><g><rect height="23" width="15" y="-1" x="-2" style="" class="background"></rect><text style="" y="-10.1"><tspan dy="1.1em" y="-0.1em" x="0" class="text-outer-tspan"><tspan font-weight="normal" class="text-inner-tspan" font-style="normal">O</tspan></tspan></text></g></g></g><g transform="translate(636.2109375, 19.65625)" class="edgeLabel"><g transform="translate(-7, -11.5)" class="label"><g><rect height="23" width="14" y="-1" x="-2" style="" class="background"></rect><text style="" y="-10.1"><tspan dy="1.1em" y="-0.1em" x="0" class="text-outer-tspan"><tspan font-weight="normal" class="text-inner-tspan" font-style="normal">K</tspan></tspan></text></g></g></g><g transform="translate(720.890625, 19.65625)" class="edgeLabel"><g transform="translate(-6, -11.5)" class="label"><g><rect height="23" width="12" y="-1" x="-2" style="" class="background"></rect><text style="" y="-10.1"><tspan dy="1.1em" y="-0.1em" x="0" class="text-outer-tspan"><tspan font-weight="normal" class="text-inner-tspan" font-style="normal">ε</tspan></tspan></text></g></g></g><g transform="translate(179.828125, 144.08203125)" class="edgeLabel"><g transform="translate(-19.203125, -11.5)" class="label"><g><rect height="23" width="38.40625" y="-1" x="-2" style="" class="background"></rect><text style="" y="-10.1"><tspan dy="1.1em" y="-0.1em" x="0" class="text-outer-tspan"><tspan font-weight="normal" class="text-inner-tspan" font-style="normal">[0-9]</tspan></tspan></text></g></g></g><g transform="translate(269.546875, 144.08203125)" class="edgeLabel"><g transform="translate(-19.203125, -11.5)" class="label"><g><rect height="23" width="38.40625" y="-1" x="-2" style="" class="background"></rect><text style="" y="-10.1"><tspan dy="1.1em" y="-0.1em" x="0" class="text-outer-tspan"><tspan font-weight="normal" class="text-inner-tspan" font-style="normal">[0-9]</tspan></tspan></text></g></g></g><g transform="translate(359.265625, 144.08203125)" class="edgeLabel"><g transform="translate(-19.203125, -11.5)" class="label"><g><rect height="23" width="38.40625" y="-1" x="-2" style="" class="background"></rect><text style="" y="-10.1"><tspan dy="1.1em" y="-0.1em" x="0" class="text-outer-tspan"><tspan font-weight="normal" class="text-inner-tspan" font-style="normal">[0-9]</tspan></tspan></text></g></g></g><g transform="translate(457.375, 144.08203125)" class="edgeLabel"><g transform="translate(-19.203125, -11.5)" class="label"><g><rect height="23" width="38.40625" y="-1" x="-2" style="" class="background"></rect><text style="" y="-10.1"><tspan dy="1.1em" y="-0.1em" x="0" class="text-outer-tspan"><tspan font-weight="normal" class="text-inner-tspan" font-style="normal">[0-9]</tspan></tspan></text></g></g></g><g transform="translate(636.2109375, 62.65625)" class="edgeLabel"><g transform="translate(-6, -11.5)" class="label"><g><rect height="23" width="12" y="-1" x="-2" style="" class="background"></rect><text style="" y="-10.1"><tspan dy="1.1em" y="-0.1em" x="0" class="text-outer-tspan"><tspan font-weight="normal" class="text-inner-tspan" font-style="normal">ε</tspan></tspan></text></g></g></g><g transform="translate(543.78125, 107.41015625)" class="edgeLabel"><g transform="translate(-7.109375, -11.5)" class="label"><g><rect height="23" width="14.21875" y="-1" x="-2" style="" class="background"></rect><text style="" y="-10.1"><tspan dy="1.1em" y="-0.1em" x="0" class="text-outer-tspan"><tspan font-weight="normal" class="text-inner-tspan" font-style="normal">N</tspan></tspan></text></g></g></g><g transform="translate(543.78125, 178.8359375)" class="edgeLabel"><g transform="translate(-6, -11.5)" class="label"><g><rect height="23" width="12" y="-1" x="-2" style="" class="background"></rect><text style="" y="-10.1"><tspan dy="1.1em" y="-0.1em" x="0" class="text-outer-tspan"><tspan font-weight="normal" class="text-inner-tspan" font-style="normal">S</tspan></tspan></text></g></g></g><g transform="translate(584.2578125, 239.68359375)" class="edgeLabel"><g transform="translate(-18.9765625, -11.5)" class="label"><g><rect height="23" width="37.953125" y="-1" x="-2" style="" class="background"></rect><text style="" y="-10.1"><tspan dy="1.1em" y="-0.1em" x="0" class="text-outer-tspan"><tspan font-weight="normal" class="text-inner-tspan" font-style="normal">[EW]</tspan></tspan></text></g></g></g><g transform="translate(685.0390625, 96.83203125)" class="edgeLabel"><g transform="translate(-6, -11.5)" class="label"><g><rect height="23" width="12" y="-1" x="-2" style="" class="background"></rect><text style="" y="-10.1"><tspan dy="1.1em" y="-0.1em" x="0" class="text-outer-tspan"><tspan font-weight="normal" class="text-inner-tspan" font-style="normal">ε</tspan></tspan></text></g></g></g><g transform="translate(636.2109375, 128.33203125)" class="edgeLabel"><g transform="translate(-18.9765625, -11.5)" class="label"><g><rect height="23" width="37.953125" y="-1" x="-2" style="" class="background"></rect><text style="" y="-10.1"><tspan dy="1.1em" y="-0.1em" x="0" class="text-outer-tspan"><tspan font-weight="normal" class="text-inner-tspan" font-style="normal">[EW]</tspan></tspan></text></g></g></g><g transform="translate(685.0390625, 159.83203125)" class="edgeLabel"><g transform="translate(-6, -11.5)" class="label"><g><rect height="23" width="12" y="-1" x="-2" style="" class="background"></rect><text style="" y="-10.1"><tspan dy="1.1em" y="-0.1em" x="0" class="text-outer-tspan"><tspan font-weight="normal" class="text-inner-tspan" font-style="normal">ε</tspan></tspan></text></g></g></g><g transform="translate(636.2109375, 199.7578125)" class="edgeLabel"><g transform="translate(-18.9765625, -11.5)" class="label"><g><rect height="23" width="37.953125" y="-1" x="-2" style="" class="background"></rect><text style="" y="-10.1"><tspan dy="1.1em" y="-0.1em" x="0" class="text-outer-tspan"><tspan font-weight="normal" class="text-inner-tspan" font-style="normal">[EW]</tspan></tspan></text></g></g></g><g transform="translate(720.890625, 214.11328125)" class="edgeLabel"><g transform="translate(-6, -11.5)" class="label"><g><rect height="23" width="12" y="-1" x="-2" style="" class="background"></rect><text style="" y="-10.1"><tspan dy="1.1em" y="-0.1em" x="0" class="text-outer-tspan"><tspan font-weight="normal" class="text-inner-tspan" font-style="normal">ε</tspan></tspan></text></g></g></g></g><g class="nodes"><g transform="translate(20, 104.15625)" id="flowchart-inicio-191" class="node default oculto"><rect height="12" width="24" y="-6" x="-12" style="fill:none !important;stroke:none !important" class="basic label-container"></rect><g transform="translate(0, 0)" style="color:none !important" class="label"><rect></rect><foreignObject height="0" width="0"><div xmlns="http://www.w3.org/1999/xhtml" style="display: table-cell; white-space: nowrap; line-height: 1.5; max-width: 200px; text-align: center;"><span class="nodeLabel" style="color:none !important"></span></div></foreignObject></g></g><g transform="translate(71.65625, 104.15625)" id="flowchart-q0-192" class="node default"><circle cy="0" cx="0" r="11.65625" style="" class="basic label-container"></circle><g transform="translate(-8.65625, -12)" style="" class="label"><rect></rect><foreignObject height="24" width="17.3125"><div style="display: table-cell; white-space: nowrap; line-height: 1.5; max-width: 200px; text-align: center;" xmlns="http://www.w3.org/1999/xhtml"><span class="nodeLabel"><p>q0</p></span></div></foreignObject></g></g><g transform="translate(224.6875, 19.65625)" id="flowchart-q1-194" class="node default"><circle cy="0" cx="0" r="11.65625" style="" class="basic label-container"></circle><g transform="translate(-8.65625, -12)" style="" class="label"><rect></rect><foreignObject height="24" width="17.3125"><div style="display: table-cell; white-space: nowrap; line-height: 1.5; max-width: 200px; text-align: center;" xmlns="http://www.w3.org/1999/xhtml"><span class="nodeLabel"><p>q1</p></span></div></foreignObject></g></g><g transform="translate(314.40625, 19.65625)" id="flowchart-q2-195" class="node default"><circle cy="0" cx="0" r="11.65625" style="" class="basic label-container"></circle><g transform="translate(-8.65625, -12)" style="" class="label"><rect></rect><foreignObject height="24" width="17.3125"><div style="display: table-cell; white-space: nowrap; line-height: 1.5; max-width: 200px; text-align: center;" xmlns="http://www.w3.org/1999/xhtml"><span class="nodeLabel"><p>q2</p></span></div></foreignObject></g></g><g transform="translate(408.3203125, 19.65625)" id="flowchart-q3-196" class="node default"><circle cy="0" cx="0" r="11.65625" style="" class="basic label-container"></circle><g transform="translate(-8.65625, -12)" style="" class="label"><rect></rect><foreignObject height="24" width="17.3125"><div style="display: table-cell; white-space: nowrap; line-height: 1.5; max-width: 200px; text-align: center;" xmlns="http://www.w3.org/1999/xhtml"><span class="nodeLabel"><p>q3</p></span></div></foreignObject></g></g><g transform="translate(506.4296875, 19.65625)" id="flowchart-q4-197" class="node default"><circle cy="0" cx="0" r="11.65625" style="" class="basic label-container"></circle><g transform="translate(-8.65625, -12)" style="" class="label"><rect></rect><foreignObject height="24" width="17.3125"><div style="display: table-cell; white-space: nowrap; line-height: 1.5; max-width: 200px; text-align: center;" xmlns="http://www.w3.org/1999/xhtml"><span class="nodeLabel"><p>q4</p></span></div></foreignObject></g></g><g transform="translate(584.2578125, 19.65625)" id="flowchart-q5-198" class="node default"><circle cy="0" cx="0" r="11.65625" style="" class="basic label-container"></circle><g transform="translate(-8.65625, -12)" style="" class="label"><rect></rect><foreignObject height="24" width="17.3125"><div style="display: table-cell; white-space: nowrap; line-height: 1.5; max-width: 200px; text-align: center;" xmlns="http://www.w3.org/1999/xhtml"><span class="nodeLabel"><p>q5</p></span></div></foreignObject></g></g><g transform="translate(685.0390625, 19.65625)" id="flowchart-q6-199" class="node default"><circle cy="0" cx="0" r="11.65625" style="" class="basic label-container"></circle><g transform="translate(-8.65625, -12)" style="" class="label"><rect></rect><foreignObject height="24" width="17.3125"><div style="display: table-cell; white-space: nowrap; line-height: 1.5; max-width: 200px; text-align: center;" xmlns="http://www.w3.org/1999/xhtml"><span class="nodeLabel"><p>q6</p></span></div></foreignObject></g></g><g transform="translate(134.96875, 144.08203125)" id="flowchart-q7-200" class="node default"><circle cy="0" cx="0" r="11.65625" style="" class="basic label-container"></circle><g transform="translate(-8.65625, -12)" style="" class="label"><rect></rect><foreignObject height="24" width="17.3125"><div style="display: table-cell; white-space: nowrap; line-height: 1.5; max-width: 200px; text-align: center;" xmlns="http://www.w3.org/1999/xhtml"><span class="nodeLabel"><p>q7</p></span></div></foreignObject></g></g><g transform="translate(224.6875, 144.08203125)" id="flowchart-q8-201" class="node default"><circle cy="0" cx="0" r="11.65625" style="" class="basic label-container"></circle><g transform="translate(-8.65625, -12)" style="" class="label"><rect></rect><foreignObject height="24" width="17.3125"><div style="display: table-cell; white-space: nowrap; line-height: 1.5; max-width: 200px; text-align: center;" xmlns="http://www.w3.org/1999/xhtml"><span class="nodeLabel"><p>q8</p></span></div></foreignObject></g></g><g transform="translate(314.40625, 144.08203125)" id="flowchart-q9-202" class="node default"><circle cy="0" cx="0" r="11.65625" style="" class="basic label-container"></circle><g transform="translate(-8.65625, -12)" style="" class="label"><rect></rect><foreignObject height="24" width="17.3125"><div style="display: table-cell; white-space: nowrap; line-height: 1.5; max-width: 200px; text-align: center;" xmlns="http://www.w3.org/1999/xhtml"><span class="nodeLabel"><p>q9</p></span></div></foreignObject></g></g><g transform="translate(408.3203125, 144.08203125)" id="flowchart-q10-203" class="node default"><circle cy="0" cx="0" r="15.8515625" style="" class="basic label-container"></circle><g transform="translate(-12.8515625, -12)" style="" class="label"><rect></rect><foreignObject height="24" width="25.703125"><div style="display: table-cell; white-space: nowrap; line-height: 1.5; max-width: 200px; text-align: center;" xmlns="http://www.w3.org/1999/xhtml"><span class="nodeLabel"><p>q10</p></span></div></foreignObject></g></g><g transform="translate(506.4296875, 144.08203125)" id="flowchart-q11-204" class="node default"><circle cy="0" cx="0" r="15.8515625" style="" class="basic label-container"></circle><g transform="translate(-12.8515625, -12)" style="" class="label"><rect></rect><foreignObject height="24" width="25.703125"><div style="display: table-cell; white-space: nowrap; line-height: 1.5; max-width: 200px; text-align: center;" xmlns="http://www.w3.org/1999/xhtml"><span class="nodeLabel"><p>q11</p></span></div></foreignObject></g></g><g transform="translate(584.2578125, 107.41015625)" id="flowchart-q12-205" class="node default"><circle cy="0" cx="0" r="15.8515625" style="" class="basic label-container"></circle><g transform="translate(-12.8515625, -12)" style="" class="label"><rect></rect><foreignObject height="24" width="25.703125"><div style="display: table-cell; white-space: nowrap; line-height: 1.5; max-width: 200px; text-align: center;" xmlns="http://www.w3.org/1999/xhtml"><span class="nodeLabel"><p>q12</p></span></div></foreignObject></g></g><g transform="translate(584.2578125, 178.8359375)" id="flowchart-q13-206" class="node default"><circle cy="0" cx="0" r="15.8515625" style="" class="basic label-container"></circle><g transform="translate(-12.8515625, -12)" style="" class="label"><rect></rect><foreignObject height="24" width="25.703125"><div style="display: table-cell; white-space: nowrap; line-height: 1.5; max-width: 200px; text-align: center;" xmlns="http://www.w3.org/1999/xhtml"><span class="nodeLabel"><p>q13</p></span></div></foreignObject></g></g><g transform="translate(685.0390625, 214.11328125)" id="flowchart-q14-207" class="node default"><circle cy="0" cx="0" r="15.8515625" style="" class="basic label-container"></circle><g transform="translate(-12.8515625, -12)" style="" class="label"><rect></rect><foreignObject height="24" width="25.703125"><div style="display: table-cell; white-space: nowrap; line-height: 1.5; max-width: 200px; text-align: center;" xmlns="http://www.w3.org/1999/xhtml"><span class="nodeLabel"><p>q14</p></span></div></foreignObject></g></g><g transform="translate(761.7421875, 91.66015625)" id="flowchart-q15-208" class="node default"><g style="" class="basic label-container"><circle cy="0" cx="0" r="20.8515625" style="" class="outer-circle"></circle><circle cy="0" cx="0" r="15.8515625" style="" class="inner-circle"></circle></g><g transform="translate(-12.8515625, -12)" style="" class="label"><rect></rect><foreignObject height="24" width="25.703125"><div style="display: table-cell; white-space: nowrap; line-height: 1.5; max-width: 200px; text-align: center;" xmlns="http://www.w3.org/1999/xhtml"><span class="nodeLabel"><p>q15</p></span></div></foreignObject></g></g></g></g></g></svg>