<svg aria-roledescription="flowchart-v2" role="graphics-document document" viewBox="0 0 876.390625 466.625" style="max-width: 876.390625px;" class="flowchart" xmlns="http://www.w3.org/2000/svg" width="100%" id="dER05"><style>#dER05{font-family:"trebuchet ms",verdana,arial,sans-serif;font-size:16px;fill:#000000;}#dER05 .error-icon{fill:#552222;}#dER05 .error-text{fill:#552222;stroke:#552222;}#dER05 .edge-thickness-normal{stroke-width:1px;}#dER05 .edge-thickness-thick{stroke-width:3.5px;}#dER05 .edge-pattern-solid{stroke-dasharray:0;}#dER05 .edge-thickness-invisible{stroke-width:0;fill:none;}#dER05 .edge-pattern-dashed{stroke-dasharray:3;}#dER05 .edge-pattern-dotted{stroke-dasharray:2;}#dER05 .marker{fill:#666;stroke:#666;}#dER05 .marker.cross{stroke:#666;}#dER05 svg{font-family:"trebuchet ms",verdana,arial,sans-serif;font-size:16px;}#dER05 p{margin:0;}#dER05 .label{font-family:"trebuchet ms",verdana,arial,sans-serif;color:#000000;}#dER05 .cluster-label text{fill:#333;}#dER05 .cluster-label span{color:#333;}#dER05 .cluster-label span p{background-color:transparent;}#dER05 .label text,#dER05 span{fill:#000000;color:#000000;}#dER05 .node rect,#dER05 .node circle,#dER05 .node ellipse,#dER05 .node polygon,#dER05 .node path{fill:#eee;stroke:#999;stroke-width:1px;}#dER05 .rough-node .label text,#dER05 .node .label text,#dER05 .image-shape .label,#dER05 .icon-shape .label{text-anchor:middle;}#dER05 .node .katex path{fill:#000;stroke:#000;stroke-width:1px;}#dER05 .rough-node .label,#dER05 .node .label,#dER05 .image-shape .label,#dER05 .icon-shape .label{text-align:center;}#dER05 .node.clickable{cursor:pointer;}#dER05 .root .anchor path{fill:#666!important;stroke-width:0;stroke:#666;}#dER05 .arrowheadPath{fill:#333333;}#dER05 .edgePath .path{stroke:#666;stroke-width:2.0px;}#dER05 .flowchart-link{stroke:#666;fill:none;}#dER05 .edgeLabel{background-color:white;text-align:center;}#dER05 .edgeLabel p{background-color:white;}#dER05 .edgeLabel rect{opacity:0.5;background-color:white;fill:white;}#dER05 .labelBkg{background-color:rgba(255, 255, 255, 0.5);}#dER05 .cluster rect{fill:hsl(0, 0%, 98.9215686275%);stroke:#707070;stroke-width:1px;}#dER05 .cluster text{fill:#333;}#dER05 .cluster span{color:#333;}#dER05 div.mermaidTooltip{position:absolute;text-align:center;max-width:200px;padding:2px;font-family:"trebuchet ms",verdana,arial,sans-serif;font-size:12px;background:hsl(-160, 0%, 93.3333333333%);border:1px solid #707070;border-radius:2px;pointer-events:none;z-index:100;}#dER05 .flowchartTitleText{text-anchor:middle;font-size:18px;fill:#000000;}#dER05 rect.text{fill:none;stroke-width:0;}#dER05 .icon-shape,#dER05 .image-shape{background-color:white;text-align:center;}#dER05 .icon-shape p,#dER05 .image-shape p{background-color:white;padding:2px;}#dER05 .icon-shape rect,#dER05 .image-shape rect{opacity:0.5;background-color:white;fill:white;}#dER05 :root{--mermaid-font-family:"trebuchet ms",verdana,arial,sans-serif;}#dER05 .oculto rect{fill:none!important;stroke:none!important;color:none!important;}#dER05 .oculto polygon{fill:none!important;stroke:none!important;color:none!important;}#dER05 .oculto ellipse{fill:none!important;stroke:none!important;color:none!important;}#dER05 .oculto circle{fill:none!important;stroke:none!important;color:none!important;}#dER05 .oculto path{fill:none!important;stroke:none!important;color:none!important;}#dER05 .oculto tspan{fill:none!important;}</style><g><marker orient="auto" markerHeight="8" markerWidth="8" markerUnits="userSpaceOnUse" refY="5" refX="5" viewBox="0 0 10 10" class="marker flowchart-v2" id="dER05_flowchart-v2-pointEnd"><path style="stroke-width: 1; stroke-dasharray: 1, 0;" class="arrowMarkerPath" d="M 0 0 L 10 5 L 0 10 z"></path></marker><marker orient="auto" markerHeight="8" markerWidth="8" markerUnits="userSpaceOnUse" refY="5" refX="4.5" viewBox="0 0 10 10" class="marker flowchart-v2" id="dER05_flowchart-v2-pointStart"><path style="stroke-width: 1; stroke-dasharray: 1, 0;" class="arrowMarkerPath" d="M 0 5 L 10 10 L 10 0 z"></path></marker><marker orient="auto" markerHeight="11" markerWidth="11" markerUnits="userSpaceOnUse" refY="5" refX="11" viewBox="0 0 10 10" class="marker flowchart-v2" id="dER05_flowchart-v2-circleEnd"><circle style="stroke-width: 1; stroke-dasharray: 1, 0;" class="arrowMarkerPath" r="5" cy="5" cx="5"></circle></marker><marker orient="auto" markerHeight="11" markerWidth="11" markerUnits="userSpaceOnUse" refY="5" refX="-1" viewBox="0 0 10 10" class="marker flowchart-v2" id="dER05_flowchart-v2-circleStart"><circle style="stroke-width: 1; stroke-dasharray: 1, 0;" class="arrowMarkerPath" r="5" cy="5" cx="5"></circle></marker><marker orient="auto" markerHeight="11" markerWidth="11" markerUnits="userSpaceOnUse" refY="5.2" refX="12" viewBox="0 0 11 11" class="marker cross flowchart-v2" id="dER05_flowchart-v2-crossEnd"><path style="stroke-width: 2; stroke-dasharray: 1, 0;" class="arrowMarkerPath" d="M 1,1 l 9,9 M 10,1 l -9,9"></path></marker><marker orient="auto" markerHeight="11" markerWidth="11" markerUnits="userSpaceOnUse" refY="5.2" refX="-1" viewBox="0 0 11 11" class="marker cross flowchart-v2" id="dER05_flowchart-v2-crossStart"><path style="stroke-width: 2; stroke-dasharray: 1, 0;" class="arrowMarkerPath" d="M 1,1 l 9,9 M 10,1 l -9,9"></path></marker><g class="root"><g class="clusters"></g><g class="edgePaths"><path marker-end="url(#dER05_flowchart-v2-pointEnd)" style="" class="edge-thickness-normal edge-pattern-solid edge-thickness-normal edge-pattern-solid flowchart-link" id="L_inicio_q0_0" d="M32,260.707L34.333,260.707C36.667,260.707,41.333,260.707,45.333,260.707C49.333,260.707,52.667,260.707,54.333,260.707L56,260.707"></path><path marker-end="url(#dER05_flowchart-v2-pointEnd)" style="" class="edge-thickness-normal edge-pattern-solid edge-thickness-normal edge-pattern-solid flowchart-link" id="L_q0_q2_1" d="M83.313,260.707L86.896,260.707C90.479,260.707,97.646,260.707,107.227,260.707C116.807,260.707,128.802,260.707,140.714,260.707C152.625,260.707,164.453,260.707,173.648,262.925C182.843,265.143,189.405,269.58,192.686,271.798L195.967,274.016"></path><path marker-end="url(#dER05_flowchart-v2-pointEnd)" style="" class="edge-thickness-normal edge-pattern-solid edge-thickness-normal edge-pattern-solid flowchart-link" id="L_q0_q1_2" d="M78.655,270.028L83.015,275.834C87.374,281.64,96.093,293.252,103.841,299.057C111.589,304.863,118.365,304.863,121.753,304.863L125.141,304.863"></path><path marker-end="url(#dER05_flowchart-v2-pointEnd)" style="" class="edge-thickness-normal edge-pattern-dotted edge-thickness-normal edge-pattern-solid flowchart-link" id="L_q0_q3_3" d="M80.034,252.602L84.163,248.607C88.293,244.611,96.553,236.62,106.68,232.624C116.807,228.629,128.802,228.629,140.714,228.629C152.625,228.629,164.453,228.629,175.81,228.629C187.167,228.629,198.052,228.629,208.771,228.629C219.49,228.629,230.042,228.629,238.919,232.932C247.797,237.236,254.999,245.843,258.601,250.147L262.202,254.45"></path><path marker-end="url(#dER05_flowchart-v2-pointEnd)" style="" class="edge-thickness-normal edge-pattern-solid edge-thickness-normal edge-pattern-solid flowchart-link" id="L_q1_q2_4" d="M152.453,304.863L156.424,304.863C160.396,304.863,168.339,304.863,175.591,302.645C182.843,300.427,189.405,295.99,192.686,293.772L195.967,291.554"></path><path marker-end="url(#dER05_flowchart-v2-pointEnd)" style="" class="edge-thickness-normal edge-pattern-dotted edge-thickness-normal edge-pattern-solid flowchart-link" id="L_q2_q3_5" d="M220.594,282.785L223.927,282.785C227.26,282.785,233.927,282.785,240.217,281.26C246.508,279.735,252.422,276.684,255.379,275.159L258.336,273.634"></path><path marker-end="url(#dER05_flowchart-v2-pointEnd)" style="" class="edge-thickness-normal edge-pattern-dotted edge-thickness-normal edge-pattern-solid flowchart-link" id="L_q3_q4_6" d="M277.241,276.991L281.685,286.371C286.129,295.75,295.018,314.51,302.129,323.89C309.24,333.27,314.573,333.27,317.24,333.27L319.906,333.27"></path><path marker-end="url(#dER05_flowchart-v2-pointEnd)" style="" class="edge-thickness-normal edge-pattern-dotted edge-thickness-normal edge-pattern-solid flowchart-link" id="L_q3_q12_7" d="M275.852,255.371L280.527,240.979C285.203,226.586,294.555,197.801,304.507,183.408C314.458,169.016,325.01,169.016,337.436,169.016C349.862,169.016,364.161,169.016,379.16,169.016C394.159,169.016,409.857,169.016,425.466,169.016C441.076,169.016,456.596,169.016,472.117,169.016C487.638,169.016,503.159,169.016,516.895,169.016C530.63,169.016,542.581,169.016,555.365,169.016C568.148,169.016,581.766,169.016,595.383,169.016C609,169.016,622.617,169.016,633.276,173.612C643.936,178.209,651.637,187.402,655.487,191.998L659.338,196.595"></path><path marker-end="url(#dER05_flowchart-v2-pointEnd)" style="" class="edge-thickness-normal edge-pattern-solid edge-thickness-normal edge-pattern-solid flowchart-link" id="L_q4_q5_8" d="M339.45,322.281L345.952,303.903C352.454,285.526,365.457,248.771,377.199,230.393C388.94,212.016,399.419,212.016,404.659,212.016L409.898,212.016"></path><path marker-end="url(#dER05_flowchart-v2-pointEnd)" style="" class="edge-thickness-normal edge-pattern-solid edge-thickness-normal edge-pattern-solid flowchart-link" id="L_q4_q6_9" d="M341.296,323.121L347.49,312.155C353.684,301.19,366.072,279.259,377.506,268.294C388.94,257.328,399.419,257.328,404.659,257.328L409.898,257.328"></path><path marker-end="url(#dER05_flowchart-v2-pointEnd)" style="" class="edge-thickness-normal edge-pattern-solid edge-thickness-normal edge-pattern-solid flowchart-link" id="L_q4_q7_10" d="M345.049,326.496L350.618,322.52C356.186,318.544,367.324,310.593,378.132,306.617C388.94,302.641,399.419,302.641,404.659,302.641L409.898,302.641"></path><path marker-end="url(#dER05_flowchart-v2-pointEnd)" style="" class="edge-thickness-normal edge-pattern-solid edge-thickness-normal edge-pattern-solid flowchart-link" id="L_q4_q8_11" d="M346.591,337.044L351.902,338.862C357.214,340.681,367.837,344.317,378.389,346.135C388.94,347.953,399.419,347.953,404.659,347.953L409.898,347.953"></path><path marker-end="url(#dER05_flowchart-v2-pointEnd)" style="" class="edge-thickness-normal edge-pattern-solid edge-thickness-normal edge-pattern-solid flowchart-link" id="L_q4_q9_12" d="M342.342,342.751L348.362,351.17C354.382,359.589,366.421,376.428,377.681,384.847C388.94,393.266,399.419,393.266,404.659,393.266L409.898,393.266"></path><path marker-end="url(#dER05_flowchart-v2-pointEnd)" style="" class="edge-thickness-normal edge-pattern-solid edge-thickness-normal edge-pattern-solid flowchart-link" id="L_q4_q10_13" d="M339.814,344.123L346.255,360.564C352.696,377.006,365.579,409.89,376.56,426.332C387.542,442.773,396.622,442.773,401.163,442.773L405.703,442.773"></path><path marker-end="url(#dER05_flowchart-v2-pointEnd)" style="" class="edge-thickness-normal edge-pattern-solid edge-thickness-normal edge-pattern-solid flowchart-link" id="L_q5_q11_14" d="M437.211,212.016L443.029,212.016C448.846,212.016,460.482,212.016,472.33,221.852C484.179,231.688,496.241,251.361,502.272,261.197L508.303,271.033"></path><path marker-end="url(#dER05_flowchart-v2-pointEnd)" style="" class="edge-thickness-normal edge-pattern-solid edge-thickness-normal edge-pattern-solid flowchart-link" id="L_q6_q11_15" d="M437.211,257.328L443.029,257.328C448.846,257.328,460.482,257.328,471.296,260.615C482.11,263.901,492.102,270.474,497.098,273.761L502.095,277.047"></path><path marker-end="url(#dER05_flowchart-v2-pointEnd)" style="" class="edge-thickness-normal edge-pattern-solid edge-thickness-normal edge-pattern-solid flowchart-link" id="L_q7_q11_16" d="M437.211,302.641L443.029,302.641C448.846,302.641,460.482,302.641,470.904,301.188C481.327,299.736,490.537,296.832,495.142,295.38L499.747,293.927"></path><path marker-end="url(#dER05_flowchart-v2-pointEnd)" style="" class="edge-thickness-normal edge-pattern-solid edge-thickness-normal edge-pattern-solid flowchart-link" id="L_q8_q11_17" d="M437.211,347.953L443.029,347.953C448.846,347.953,460.482,347.953,472.031,340.568C483.581,333.182,495.045,318.411,500.777,311.025L506.508,303.64"></path><path marker-end="url(#dER05_flowchart-v2-pointEnd)" style="" class="edge-thickness-normal edge-pattern-solid edge-thickness-normal edge-pattern-solid flowchart-link" id="L_q9_q11_18" d="M437.211,393.266L443.029,393.266C448.846,393.266,460.482,393.266,472.722,378.74C484.962,364.215,497.807,335.164,504.229,320.638L510.652,306.113"></path><path marker-end="url(#dER05_flowchart-v2-pointEnd)" style="" class="edge-thickness-normal edge-pattern-solid edge-thickness-normal edge-pattern-solid flowchart-link" id="L_q10_q11_19" d="M441.406,442.773L446.525,442.773C451.643,442.773,461.88,442.773,473.806,420.139C485.732,397.505,499.347,352.236,506.155,329.602L512.962,306.967"></path><path marker-end="url(#dER05_flowchart-v2-pointEnd)" style="" class="edge-thickness-normal edge-pattern-dotted edge-thickness-normal edge-pattern-solid flowchart-link" id="L_q11_q22_20" d="M534.531,287.957L537.865,287.957C541.198,287.957,547.865,287.957,553.865,287.957C559.865,287.957,565.198,287.957,567.865,287.957L570.531,287.957"></path><path marker-end="url(#dER05_flowchart-v2-pointEnd)" style="" class="edge-thickness-normal edge-pattern-solid edge-thickness-normal edge-pattern-solid flowchart-link" id="L_q12_q13_21" d="M675.169,196.264L680.866,167.528C686.563,138.793,697.957,81.322,706.557,52.587C715.156,23.852,720.961,23.852,723.863,23.852L726.766,23.852"></path><path marker-end="url(#dER05_flowchart-v2-pointEnd)" style="" class="edge-thickness-normal edge-pattern-solid edge-thickness-normal edge-pattern-solid flowchart-link" id="L_q12_q14_22" d="M676.326,196.538L681.83,176.708C687.334,156.877,698.343,117.216,706.75,97.385C715.156,77.555,720.961,77.555,723.863,77.555L726.766,77.555"></path><path marker-end="url(#dER05_flowchart-v2-pointEnd)" style="" class="edge-thickness-normal edge-pattern-solid edge-thickness-normal edge-pattern-solid flowchart-link" id="L_q12_q15_23" d="M678.741,197.426L683.843,186.398C688.945,175.37,699.148,153.314,707.152,142.286C715.156,131.258,720.961,131.258,723.863,131.258L726.766,131.258"></path><path marker-end="url(#dER05_flowchart-v2-pointEnd)" style="" class="edge-thickness-normal edge-pattern-solid edge-thickness-normal edge-pattern-solid flowchart-link" id="L_q12_q16_24" d="M684.947,202.546L689.014,199.615C693.082,196.684,701.217,190.823,708.186,187.892C715.156,184.961,720.961,184.961,723.863,184.961L726.766,184.961"></path><path marker-end="url(#dER05_flowchart-v2-pointEnd)" style="" class="edge-thickness-normal edge-pattern-solid edge-thickness-normal edge-pattern-solid flowchart-link" id="L_q12_q17_25" d="M684.947,221.079L689.014,224.01C693.082,226.941,701.217,232.802,708.186,235.733C715.156,238.664,720.961,238.664,723.863,238.664L726.766,238.664"></path><path marker-end="url(#dER05_flowchart-v2-pointEnd)" style="" class="edge-thickness-normal edge-pattern-solid edge-thickness-normal edge-pattern-solid flowchart-link" id="L_q12_q18_26" d="M678.741,226.199L683.843,237.227C688.945,248.255,699.148,270.311,707.152,281.339C715.156,292.367,720.961,292.367,723.863,292.367L726.766,292.367"></path><path marker-end="url(#dER05_flowchart-v2-pointEnd)" style="" class="edge-thickness-normal edge-pattern-solid edge-thickness-normal edge-pattern-solid flowchart-link" id="L_q12_q19_27" d="M676.326,227.087L681.83,246.917C687.334,266.748,698.343,306.409,706.75,326.24C715.156,346.07,720.961,346.07,723.863,346.07L726.766,346.07"></path><path marker-end="url(#dER05_flowchart-v2-pointEnd)" style="" class="edge-thickness-normal edge-pattern-solid edge-thickness-normal edge-pattern-solid flowchart-link" id="L_q12_q20_28" d="M675.169,227.361L680.866,256.097C686.563,284.832,697.957,342.303,706.557,371.038C715.156,399.773,720.961,399.773,723.863,399.773L726.766,399.773"></path><path marker-end="url(#dER05_flowchart-v2-pointEnd)" style="" class="edge-thickness-normal edge-pattern-solid edge-thickness-normal edge-pattern-solid flowchart-link" id="L_q13_q21_29" d="M762.469,23.852L768.654,23.852C774.839,23.852,787.208,23.852,801.222,48.597C815.236,73.343,830.893,122.835,838.722,147.581L846.551,172.327"></path><path marker-end="url(#dER05_flowchart-v2-pointEnd)" style="" class="edge-thickness-normal edge-pattern-solid edge-thickness-normal edge-pattern-solid flowchart-link" id="L_q14_q21_30" d="M762.469,77.555L768.654,77.555C774.839,77.555,787.208,77.555,800.823,93.505C814.438,109.456,829.297,141.357,836.727,157.308L844.157,173.259"></path><path marker-end="url(#dER05_flowchart-v2-pointEnd)" style="" class="edge-thickness-normal edge-pattern-solid edge-thickness-normal edge-pattern-solid flowchart-link" id="L_q15_q21_31" d="M762.469,131.258L768.654,131.258C774.839,131.258,787.208,131.258,800.03,138.777C812.853,146.296,826.127,161.333,832.764,168.852L839.402,176.371"></path><path marker-end="url(#dER05_flowchart-v2-pointEnd)" style="" class="edge-thickness-normal edge-pattern-solid edge-thickness-normal edge-pattern-solid flowchart-link" id="L_q16_q21_32" d="M762.469,184.961L768.654,184.961C774.839,184.961,787.208,184.961,798.935,185.619C810.661,186.278,821.743,187.595,827.285,188.253L832.826,188.912"></path><path marker-end="url(#dER05_flowchart-v2-pointEnd)" style="" class="edge-thickness-normal edge-pattern-solid edge-thickness-normal edge-pattern-solid flowchart-link" id="L_q17_q21_33" d="M762.469,238.664L768.654,238.664C774.839,238.664,787.208,238.664,799.755,232.969C812.301,227.274,825.025,215.884,831.387,210.189L837.748,204.495"></path><path marker-end="url(#dER05_flowchart-v2-pointEnd)" style="" class="edge-thickness-normal edge-pattern-solid edge-thickness-normal edge-pattern-solid flowchart-link" id="L_q18_q21_34" d="M762.469,292.367L768.654,292.367C774.839,292.367,787.208,292.367,800.685,278.446C814.161,264.525,828.745,236.682,836.037,222.761L843.328,208.839"></path><path marker-end="url(#dER05_flowchart-v2-pointEnd)" style="" class="edge-thickness-normal edge-pattern-solid edge-thickness-normal edge-pattern-solid flowchart-link" id="L_q19_q21_35" d="M762.469,346.07L768.654,346.07C774.839,346.07,787.208,346.07,801.149,323.398C815.09,300.726,830.602,255.381,838.358,232.709L846.114,210.037"></path><path marker-end="url(#dER05_flowchart-v2-pointEnd)" style="" class="edge-thickness-normal edge-pattern-solid edge-thickness-normal edge-pattern-solid flowchart-link" id="L_q20_q21_36" d="M762.469,399.773L768.654,399.773C774.839,399.773,787.208,399.773,801.406,368.227C815.603,336.68,831.628,273.588,839.64,242.041L847.652,210.495"></path><path marker-end="url(#dER05_flowchart-v2-pointEnd)" style="" class="edge-thickness-normal edge-pattern-dotted edge-thickness-normal edge-pattern-solid flowchart-link" id="L_q21_q22_37" d="M849.273,206.765L840.99,246.1C832.708,285.435,816.143,364.104,799.034,403.439C781.924,442.773,764.271,442.773,749.233,442.773C734.195,442.773,721.773,442.773,709.352,442.773C696.93,442.773,684.508,442.773,672.322,442.773C660.135,442.773,648.185,442.773,636.458,420.976C624.731,399.178,613.227,355.582,607.475,333.784L601.723,311.986"></path><path marker-end="url(#dER05_flowchart-v2-pointEnd)" style="" class="edge-thickness-normal edge-pattern-dotted edge-thickness-normal edge-pattern-solid flowchart-link" id="L_q22_q12_38" d="M607.868,271.256L612.596,264.932C617.323,258.608,626.779,245.96,634.644,237.755C642.51,229.549,648.786,225.786,651.923,223.904L655.061,222.022"></path></g><g class="edgeLabels"><g><rect style="stroke: none" class="background"></rect></g><g class="edgeLabel"><g transform="translate(0, 0)" class="label"><text y="-10.1"><tspan dy="1.1em" y="-0.1em" x="0" class="text-outer-tspan"></tspan></text></g></g><g transform="translate(140.796875, 260.70703125)" class="edgeLabel"><g transform="translate(-14.484375, -11.5)" class="label"><g><rect height="23" width="28.96875" y="-1" x="-2" style="" class="background"></rect><text style="" y="-10.1"><tspan dy="1.1em" y="-0.1em" x="0" class="text-outer-tspan"><tspan font-weight="normal" class="text-inner-tspan" font-style="normal">-,</tspan><tspan font-weight="normal" class="text-inner-tspan" font-style="normal"> +</tspan></tspan></text></g></g></g><g transform="translate(104.8125, 304.86328125)" class="edgeLabel"><g transform="translate(-7.5, -11.5)" class="label"><g><rect height="23" width="15" y="-1" x="-3" style="" class="background"></rect><text style="" y="-10.1"><tspan dy="1.1em" y="-0.1em" x="0" class="text-outer-tspan"><tspan font-weight="normal" class="text-inner-tspan" font-style="normal">V</tspan></tspan></text></g></g></g><g transform="translate(176.28125, 228.62890625)" class="edgeLabel"><g transform="translate(-6, -11.5)" class="label"><g><rect height="23" width="12" y="-1" x="-2" style="" class="background"></rect><text style="" y="-10.1"><tspan dy="1.1em" y="-0.1em" x="0" class="text-outer-tspan"><tspan font-weight="normal" class="text-inner-tspan" font-style="normal">ε</tspan></tspan></text></g></g></g><g transform="translate(176.28125, 304.86328125)" class="edgeLabel"><g transform="translate(-7, -11.5)" class="label"><g><rect height="23" width="14" y="-1" x="-2" style="" class="background"></rect><text style="" y="-10.1"><tspan dy="1.1em" y="-0.1em" x="0" class="text-outer-tspan"><tspan font-weight="normal" class="text-inner-tspan" font-style="normal">C</tspan></tspan></text></g></g></g><g transform="translate(240.59375, 282.78515625)" class="edgeLabel"><g transform="translate(-6, -11.5)" class="label"><g><rect height="23" width="12" y="-1" x="-2" style="" class="background"></rect><text style="" y="-10.1"><tspan dy="1.1em" y="-0.1em" x="0" class="text-outer-tspan"><tspan font-weight="normal" class="text-inner-tspan" font-style="normal">ε</tspan></tspan></text></g></g></g><g transform="translate(303.90625, 333.26953125)" class="edgeLabel"><g transform="translate(-6, -11.5)" class="label"><g><rect height="23" width="12" y="-1" x="-2" style="" class="background"></rect><text style="" y="-10.1"><tspan dy="1.1em" y="-0.1em" x="0" class="text-outer-tspan"><tspan font-weight="normal" class="text-inner-tspan" font-style="normal">ε</tspan></tspan></text></g></g></g><g transform="translate(472.1171875, 169.015625)" class="edgeLabel"><g transform="translate(-6, -11.5)" class="label"><g><rect height="23" width="12" y="-1" x="-2" style="" class="background"></rect><text style="" y="-10.1"><tspan dy="1.1em" y="-0.1em" x="0" class="text-outer-tspan"><tspan font-weight="normal" class="text-inner-tspan" font-style="normal">ε</tspan></tspan></text></g></g></g><g transform="translate(378.4609375, 212.015625)" class="edgeLabel"><g transform="translate(-8.5, -11.5)" class="label"><g><rect height="23" width="17" y="-1" x="-3" style="" class="background"></rect><text style="" y="-10.1"><tspan dy="1.1em" y="-0.1em" x="0" class="text-outer-tspan"><tspan font-weight="normal" class="text-inner-tspan" font-style="normal">M</tspan></tspan></text></g></g></g><g transform="translate(378.4609375, 257.328125)" class="edgeLabel"><g transform="translate(-6.53125, -11.5)" class="label"><g><rect height="23" width="13.0625" y="-1" x="-2" style="" class="background"></rect><text style="" y="-10.1"><tspan dy="1.1em" y="-0.1em" x="0" class="text-outer-tspan"><tspan font-weight="normal" class="text-inner-tspan" font-style="normal">B</tspan></tspan></text></g></g></g><g transform="translate(378.4609375, 302.640625)" class="edgeLabel"><g transform="translate(-17.2421875, -11.5)" class="label"><g><rect height="23" width="34.484375" y="-1" x="-2" style="" class="background"></rect><text style="" y="-10.1"><tspan dy="1.1em" y="-0.1em" x="0" class="text-outer-tspan"><tspan font-weight="normal" class="text-inner-tspan" font-style="normal">[PD]</tspan></tspan></text></g></g></g><g transform="translate(378.4609375, 347.953125)" class="edgeLabel"><g transform="translate(-6, -11.5)" class="label"><g><rect height="23" width="12" y="-1" x="-2" style="" class="background"></rect><text style="" y="-10.1"><tspan dy="1.1em" y="-0.1em" x="0" class="text-outer-tspan"><tspan font-weight="normal" class="text-inner-tspan" font-style="normal">S</tspan></tspan></text></g></g></g><g transform="translate(378.4609375, 393.265625)" class="edgeLabel"><g transform="translate(-7.5, -11.5)" class="label"><g><rect height="23" width="15" y="-1" x="-3" style="" class="background"></rect><text style="" y="-10.1"><tspan dy="1.1em" y="-0.1em" x="0" class="text-outer-tspan"><tspan font-weight="normal" class="text-inner-tspan" font-style="normal">T</tspan></tspan></text></g></g></g><g transform="translate(378.4609375, 442.7734375)" class="edgeLabel"><g transform="translate(-6.5, -11.5)" class="label"><g><rect height="23" width="13" y="-1" x="-2" style="" class="background"></rect><text style="" y="-10.1"><tspan dy="1.1em" y="-0.1em" x="0" class="text-outer-tspan"><tspan font-weight="normal" class="text-inner-tspan" font-style="normal">F</tspan></tspan></text></g></g></g><g transform="translate(472.1171875, 212.015625)" class="edgeLabel"><g transform="translate(-4.2265625, -11.5)" class="label"><g><rect height="23" width="8.453125" y="-1" x="-2" style="" class="background"></rect><text style="" y="-10.1"><tspan dy="1.1em" y="-0.1em" x="0" class="text-outer-tspan"><tspan font-weight="normal" class="text-inner-tspan" font-style="normal">I</tspan></tspan></text></g></g></g><g transform="translate(472.1171875, 257.328125)" class="edgeLabel"><g transform="translate(-16.7109375, -11.5)" class="label"><g><rect height="23" width="33.421875" y="-1" x="-2" style="" class="background"></rect><text style="" y="-10.1"><tspan dy="1.1em" y="-0.1em" x="0" class="text-outer-tspan"><tspan font-weight="normal" class="text-inner-tspan" font-style="normal">[CL]</tspan></tspan></text></g></g></g><g transform="translate(472.1171875, 302.640625)" class="edgeLabel"><g transform="translate(-7, -11.5)" class="label"><g><rect height="23" width="14" y="-1" x="-2" style="" class="background"></rect><text style="" y="-10.1"><tspan dy="1.1em" y="-0.1em" x="0" class="text-outer-tspan"><tspan font-weight="normal" class="text-inner-tspan" font-style="normal">R</tspan></tspan></text></g></g></g><g transform="translate(472.1171875, 347.953125)" class="edgeLabel"><g transform="translate(-7.234375, -11.5)" class="label"><g><rect height="23" width="14.46875" y="-1" x="-2" style="" class="background"></rect><text style="" y="-10.1"><tspan dy="1.1em" y="-0.1em" x="0" class="text-outer-tspan"><tspan font-weight="normal" class="text-inner-tspan" font-style="normal">H</tspan></tspan></text></g></g></g><g transform="translate(472.1171875, 393.265625)" class="edgeLabel"><g transform="translate(-6, -11.5)" class="label"><g><rect height="23" width="12" y="-1" x="-2" style="" class="background"></rect><text style="" y="-10.1"><tspan dy="1.1em" y="-0.1em" x="0" class="text-outer-tspan"><tspan font-weight="normal" class="text-inner-tspan" font-style="normal">S</tspan></tspan></text></g></g></g><g transform="translate(472.1171875, 442.7734375)" class="edgeLabel"><g transform="translate(-6.5, -11.5)" class="label"><g><rect height="23" width="13" y="-1" x="-2" style="" class="background"></rect><text style="" y="-10.1"><tspan dy="1.1em" y="-0.1em" x="0" class="text-outer-tspan"><tspan font-weight="normal" class="text-inner-tspan" font-style="normal">Z</tspan></tspan></text></g></g></g><g transform="translate(554.53125, 287.95703125)" class="edgeLabel"><g transform="translate(-6, -11.5)" class="label"><g><rect height="23" width="12" y="-1" x="-2" style="" class="background"></rect><text style="" y="-10.1"><tspan dy="1.1em" y="-0.1em" x="0" class="text-outer-tspan"><tspan font-weight="normal" class="text-inner-tspan" font-style="normal">ε</tspan></tspan></text></g></g></g><g transform="translate(709.3515625, 23.8515625)" class="edgeLabel"><g transform="translate(-7, -11.5)" class="label"><g><rect height="23" width="14" y="-1" x="-2" style="" class="background"></rect><text style="" y="-10.1"><tspan dy="1.1em" y="-0.1em" x="0" class="text-outer-tspan"><tspan font-weight="normal" class="text-inner-tspan" font-style="normal">D</tspan></tspan></text></g></g></g><g transform="translate(709.3515625, 77.5546875)" class="edgeLabel"><g transform="translate(-7, -11.5)" class="label"><g><rect height="23" width="14" y="-1" x="-2" style="" class="background"></rect><text style="" y="-10.1"><tspan dy="1.1em" y="-0.1em" x="0" class="text-outer-tspan"><tspan font-weight="normal" class="text-inner-tspan" font-style="normal">R</tspan></tspan></text></g></g></g><g transform="translate(709.3515625, 131.2578125)" class="edgeLabel"><g transform="translate(-6, -11.5)" class="label"><g><rect height="23" width="12" y="-1" x="-2" style="" class="background"></rect><text style="" y="-10.1"><tspan dy="1.1em" y="-0.1em" x="0" class="text-outer-tspan"><tspan font-weight="normal" class="text-inner-tspan" font-style="normal">S</tspan></tspan></text></g></g></g><g transform="translate(709.3515625, 184.9609375)" class="edgeLabel"><g transform="translate(-6.5, -11.5)" class="label"><g><rect height="23" width="13" y="-1" x="-2" style="" class="background"></rect><text style="" y="-10.1"><tspan dy="1.1em" y="-0.1em" x="0" class="text-outer-tspan"><tspan font-weight="normal" class="text-inner-tspan" font-style="normal">P</tspan></tspan></text></g></g></g><g transform="translate(709.3515625, 238.6640625)" class="edgeLabel"><g transform="translate(-7.4140625, -11.5)" class="label"><g><rect height="23" width="14.828125" y="-1" x="-2" style="" class="background"></rect><text style="" y="-10.1"><tspan dy="1.1em" y="-0.1em" x="0" class="text-outer-tspan"><tspan font-weight="normal" class="text-inner-tspan" font-style="normal">G</tspan></tspan></text></g></g></g><g transform="translate(709.3515625, 292.3671875)" class="edgeLabel"><g transform="translate(-6.53125, -11.5)" class="label"><g><rect height="23" width="13.0625" y="-1" x="-2" style="" class="background"></rect><text style="" y="-10.1"><tspan dy="1.1em" y="-0.1em" x="0" class="text-outer-tspan"><tspan font-weight="normal" class="text-inner-tspan" font-style="normal">B</tspan></tspan></text></g></g></g><g transform="translate(709.3515625, 346.0703125)" class="edgeLabel"><g transform="translate(-6.5, -11.5)" class="label"><g><rect height="23" width="13" y="-1" x="-2" style="" class="background"></rect><text style="" y="-10.1"><tspan dy="1.1em" y="-0.1em" x="0" class="text-outer-tspan"><tspan font-weight="normal" class="text-inner-tspan" font-style="normal">F</tspan></tspan></text></g></g></g><g transform="translate(709.3515625, 399.7734375)" class="edgeLabel"><g transform="translate(-7.234375, -11.5)" class="label"><g><rect height="23" width="14.46875" y="-1" x="-2" style="" class="background"></rect><text style="" y="-10.1"><tspan dy="1.1em" y="-0.1em" x="0" class="text-outer-tspan"><tspan font-weight="normal" class="text-inner-tspan" font-style="normal">H</tspan></tspan></text></g></g></g><g transform="translate(799.578125, 23.8515625)" class="edgeLabel"><g transform="translate(-17.46875, -11.5)" class="label"><g><rect height="23" width="34.9375" y="-1" x="-2" style="" class="background"></rect><text style="" y="-10.1"><tspan dy="1.1em" y="-0.1em" x="0" class="text-outer-tspan"><tspan font-weight="normal" class="text-inner-tspan" font-style="normal">[ZU]</tspan></tspan></text></g></g></g><g transform="translate(799.578125, 77.5546875)" class="edgeLabel"><g transform="translate(-7.5, -11.5)" class="label"><g><rect height="23" width="15" y="-1" x="-3" style="" class="background"></rect><text style="" y="-10.1"><tspan dy="1.1em" y="-0.1em" x="0" class="text-outer-tspan"><tspan font-weight="normal" class="text-inner-tspan" font-style="normal">A</tspan></tspan></text></g></g></g><g transform="translate(799.578125, 131.2578125)" class="edgeLabel"><g transform="translate(-23.109375, -11.5)" class="label"><g><rect height="23" width="46.21875" y="-1" x="-2" style="" class="background"></rect><text style="" y="-10.1"><tspan dy="1.1em" y="-0.1em" x="0" class="text-outer-tspan"><tspan font-weight="normal" class="text-inner-tspan" font-style="normal">[NGA]</tspan></tspan></text></g></g></g><g transform="translate(799.578125, 184.9609375)" class="edgeLabel"><g transform="translate(-6.5, -11.5)" class="label"><g><rect height="23" width="13" y="-1" x="-2" style="" class="background"></rect><text style="" y="-10.1"><tspan dy="1.1em" y="-0.1em" x="0" class="text-outer-tspan"><tspan font-weight="normal" class="text-inner-tspan" font-style="normal">L</tspan></tspan></text></g></g></g><g transform="translate(799.578125, 238.6640625)" class="edgeLabel"><g transform="translate(-16.3828125, -11.5)" class="label"><g><rect height="23" width="32.765625" y="-1" x="-2" style="" class="background"></rect><text style="" y="-10.1"><tspan dy="1.1em" y="-0.1em" x="0" class="text-outer-tspan"><tspan font-weight="normal" class="text-inner-tspan" font-style="normal">[RS]</tspan></tspan></text></g></g></g><g transform="translate(799.578125, 292.3671875)" class="edgeLabel"><g transform="translate(-7, -11.5)" class="label"><g><rect height="23" width="14" y="-1" x="-2" style="" class="background"></rect><text style="" y="-10.1"><tspan dy="1.1em" y="-0.1em" x="0" class="text-outer-tspan"><tspan font-weight="normal" class="text-inner-tspan" font-style="normal">R</tspan></tspan></text></g></g></g><g transform="translate(799.578125, 346.0703125)" class="edgeLabel"><g transform="translate(-18.4765625, -11.5)" class="label"><g><rect height="23" width="36.953125" y="-1" x="-2" style="" class="background"></rect><text style="" y="-10.1"><tspan dy="1.1em" y="-0.1em" x="0" class="text-outer-tspan"><tspan font-weight="normal" class="text-inner-tspan" font-style="normal">[GU]</tspan></tspan></text></g></g></g><g transform="translate(799.578125, 399.7734375)" class="edgeLabel"><g transform="translate(-6.5, -11.5)" class="label"><g><rect height="23" width="13" y="-1" x="-2" style="" class="background"></rect><text style="" y="-10.1"><tspan dy="1.1em" y="-0.1em" x="0" class="text-outer-tspan"><tspan font-weight="normal" class="text-inner-tspan" font-style="normal">Z</tspan></tspan></text></g></g></g><g transform="translate(709.3515625, 442.7734375)" class="edgeLabel"><g transform="translate(-6, -11.5)" class="label"><g><rect height="23" width="12" y="-1" x="-2" style="" class="background"></rect><text style="" y="-10.1"><tspan dy="1.1em" y="-0.1em" x="0" class="text-outer-tspan"><tspan font-weight="normal" class="text-inner-tspan" font-style="normal">ε</tspan></tspan></text></g></g></g><g transform="translate(636.234375, 233.3125)" class="edgeLabel"><g transform="translate(-6, -11.5)" class="label"><g><rect height="23" width="12" y="-1" x="-2" style="" class="background"></rect><text style="" y="-10.1"><tspan dy="1.1em" y="-0.1em" x="0" class="text-outer-tspan"><tspan font-weight="normal" class="text-inner-tspan" font-style="normal">ε</tspan></tspan></text></g></g></g></g><g class="nodes"><g transform="translate(20, 260.70703125)" id="flowchart-inicio-251" class="node default oculto"><rect height="12" width="24" y="-6" x="-12" style="fill:none !important;stroke:none !important" class="basic label-container"></rect><g transform="translate(0, 0)" style="color:none !important" class="label"><rect></rect><foreignObject height="0" width="0"><div xmlns="http://www.w3.org/1999/xhtml" style="display: table-cell; white-space: nowrap; line-height: 1.5; max-width: 200px; text-align: center;"><span class="nodeLabel" style="color:none !important"></span></div></foreignObject></g></g><g transform="translate(71.65625, 260.70703125)" id="flowchart-q0-252" class="node default"><circle cy="0" cx="0" r="11.65625" style="" class="basic label-container"></circle><g transform="translate(-8.65625, -12)" style="" class="label"><rect></rect><foreignObject height="24" width="17.3125"><div style="display: table-cell; white-space: nowrap; line-height: 1.5; max-width: 200px; text-align: center;" xmlns="http://www.w3.org/1999/xhtml"><span class="nodeLabel"><p>q0</p></span></div></foreignObject></g></g><g transform="translate(140.796875, 304.86328125)" id="flowchart-q1-254" class="node default"><circle cy="0" cx="0" r="11.65625" style="" class="basic label-container"></circle><g transform="translate(-8.65625, -12)" style="" class="label"><rect></rect><foreignObject height="24" width="17.3125"><div style="display: table-cell; white-space: nowrap; line-height: 1.5; max-width: 200px; text-align: center;" xmlns="http://www.w3.org/1999/xhtml"><span class="nodeLabel"><p>q1</p></span></div></foreignObject></g></g><g transform="translate(208.9375, 282.78515625)" id="flowchart-q2-255" class="node default"><circle cy="0" cx="0" r="11.65625" style="" class="basic label-container"></circle><g transform="translate(-8.65625, -12)" style="" class="label"><rect></rect><foreignObject height="24" width="17.3125"><div style="display: table-cell; white-space: nowrap; line-height: 1.5; max-width: 200px; text-align: center;" xmlns="http://www.w3.org/1999/xhtml"><span class="nodeLabel"><p>q2</p></span></div></foreignObject></g></g><g transform="translate(272.25, 266.45703125)" id="flowchart-q3-256" class="node default"><circle cy="0" cx="0" r="11.65625" style="" class="basic label-container"></circle><g transform="translate(-8.65625, -12)" style="" class="label"><rect></rect><foreignObject height="24" width="17.3125"><div style="display: table-cell; white-space: nowrap; line-height: 1.5; max-width: 200px; text-align: center;" xmlns="http://www.w3.org/1999/xhtml"><span class="nodeLabel"><p>q3</p></span></div></foreignObject></g></g><g transform="translate(335.5625, 333.26953125)" id="flowchart-q4-257" class="node default"><circle cy="0" cx="0" r="11.65625" style="" class="basic label-container"></circle><g transform="translate(-8.65625, -12)" style="" class="label"><rect></rect><foreignObject height="24" width="17.3125"><div style="display: table-cell; white-space: nowrap; line-height: 1.5; max-width: 200px; text-align: center;" xmlns="http://www.w3.org/1999/xhtml"><span class="nodeLabel"><p>q4</p></span></div></foreignObject></g></g><g transform="translate(425.5546875, 212.015625)" id="flowchart-q5-258" class="node default"><circle cy="0" cx="0" r="11.65625" style="" class="basic label-container"></circle><g transform="translate(-8.65625, -12)" style="" class="label"><rect></rect><foreignObject height="24" width="17.3125"><div style="display: table-cell; white-space: nowrap; line-height: 1.5; max-width: 200px; text-align: center;" xmlns="http://www.w3.org/1999/xhtml"><span class="nodeLabel"><p>q5</p></span></div></foreignObject></g></g><g transform="translate(425.5546875, 257.328125)" id="flowchart-q6-259" class="node default"><circle cy="0" cx="0" r="11.65625" style="" class="basic label-container"></circle><g transform="translate(-8.65625, -12)" style="" class="label"><rect></rect><foreignObject height="24" width="17.3125"><div style="display: table-cell; white-space: nowrap; line-height: 1.5; max-width: 200px; text-align: center;" xmlns="http://www.w3.org/1999/xhtml"><span class="nodeLabel"><p>q6</p></span></div></foreignObject></g></g><g transform="translate(425.5546875, 302.640625)" id="flowchart-q7-260" class="node default"><circle cy="0" cx="0" r="11.65625" style="" class="basic label-container"></circle><g transform="translate(-8.65625, -12)" style="" class="label"><rect></rect><foreignObject height="24" width="17.3125"><div style="display: table-cell; white-space: nowrap; line-height: 1.5; max-width: 200px; text-align: center;" xmlns="http://www.w3.org/1999/xhtml"><span class="nodeLabel"><p>q7</p></span></div></foreignObject></g></g><g transform="translate(425.5546875, 347.953125)" id="flowchart-q8-261" class="node default"><circle cy="0" cx="0" r="11.65625" style="" class="basic label-container"></circle><g transform="translate(-8.65625, -12)" style="" class="label"><rect></rect><foreignObject height="24" width="17.3125"><div style="display: table-cell; white-space: nowrap; line-height: 1.5; max-width: 200px; text-align: center;" xmlns="http://www.w3.org/1999/xhtml"><span class="nodeLabel"><p>q8</p></span></div></foreignObject></g></g><g transform="translate(425.5546875, 393.265625)" id="flowchart-q9-262" class="node default"><circle cy="0" cx="0" r="11.65625" style="" class="basic label-container"></circle><g transform="translate(-8.65625, -12)" style="" class="label"><rect></rect><foreignObject height="24" width="17.3125"><div style="display: table-cell; white-space: nowrap; line-height: 1.5; max-width: 200px; text-align: center;" xmlns="http://www.w3.org/1999/xhtml"><span class="nodeLabel"><p>q9</p></span></div></foreignObject></g></g><g transform="translate(425.5546875, 442.7734375)" id="flowchart-q10-263" class="node default"><circle cy="0" cx="0" r="15.8515625" style="" class="basic label-container"></circle><g transform="translate(-12.8515625, -12)" style="" class="label"><rect></rect><foreignObject height="24" width="25.703125"><div style="display: table-cell; white-space: nowrap; line-height: 1.5; max-width: 200px; text-align: center;" xmlns="http://www.w3.org/1999/xhtml"><span class="nodeLabel"><p>q10</p></span></div></foreignObject></g></g><g transform="translate(518.6796875, 287.95703125)" id="flowchart-q11-264" class="node default"><circle cy="0" cx="0" r="15.8515625" style="" class="basic label-container"></circle><g transform="translate(-12.8515625, -12)" style="" class="label"><rect></rect><foreignObject height="24" width="25.703125"><div style="display: table-cell; white-space: nowrap; line-height: 1.5; max-width: 200px; text-align: center;" xmlns="http://www.w3.org/1999/xhtml"><span class="nodeLabel"><p>q11</p></span></div></foreignObject></g></g><g transform="translate(672.0859375, 211.8125)" id="flowchart-q12-265" class="node default"><circle cy="0" cx="0" r="15.8515625" style="" class="basic label-container"></circle><g transform="translate(-12.8515625, -12)" style="" class="label"><rect></rect><foreignObject height="24" width="25.703125"><div style="display: table-cell; white-space: nowrap; line-height: 1.5; max-width: 200px; text-align: center;" xmlns="http://www.w3.org/1999/xhtml"><span class="nodeLabel"><p>q12</p></span></div></foreignObject></g></g><g transform="translate(746.6171875, 23.8515625)" id="flowchart-q13-266" class="node default"><circle cy="0" cx="0" r="15.8515625" style="" class="basic label-container"></circle><g transform="translate(-12.8515625, -12)" style="" class="label"><rect></rect><foreignObject height="24" width="25.703125"><div style="display: table-cell; white-space: nowrap; line-height: 1.5; max-width: 200px; text-align: center;" xmlns="http://www.w3.org/1999/xhtml"><span class="nodeLabel"><p>q13</p></span></div></foreignObject></g></g><g transform="translate(746.6171875, 77.5546875)" id="flowchart-q14-267" class="node default"><circle cy="0" cx="0" r="15.8515625" style="" class="basic label-container"></circle><g transform="translate(-12.8515625, -12)" style="" class="label"><rect></rect><foreignObject height="24" width="25.703125"><div style="display: table-cell; white-space: nowrap; line-height: 1.5; max-width: 200px; text-align: center;" xmlns="http://www.w3.org/1999/xhtml"><span class="nodeLabel"><p>q14</p></span></div></foreignObject></g></g><g transform="translate(746.6171875, 131.2578125)" id="flowchart-q15-268" class="node default"><circle cy="0" cx="0" r="15.8515625" style="" class="basic label-container"></circle><g transform="translate(-12.8515625, -12)" style="" class="label"><rect></rect><foreignObject height="24" width="25.703125"><div style="display: table-cell; white-space: nowrap; line-height: 1.5; max-width: 200px; text-align: center;" xmlns="http://www.w3.org/1999/xhtml"><span class="nodeLabel"><p>q15</p></span></div></foreignObject></g></g><g transform="translate(746.6171875, 184.9609375)" id="flowchart-q16-269" class="node default"><circle cy="0" cx="0" r="15.8515625" style="" class="basic label-container"></circle><g transform="translate(-12.8515625, -12)" style="" class="label"><rect></rect><foreignObject height="24" width="25.703125"><div style="display: table-cell; white-space: nowrap; line-height: 1.5; max-width: 200px; text-align: center;" xmlns="http://www.w3.org/1999/xhtml"><span class="nodeLabel"><p>q16</p></span></div></foreignObject></g></g><g transform="translate(746.6171875, 238.6640625)" id="flowchart-q17-270" class="node default"><circle cy="0" cx="0" r="15.8515625" style="" class="basic label-container"></circle><g transform="translate(-12.8515625, -12)" style="" class="label"><rect></rect><foreignObject height="24" width="25.703125"><div style="display: table-cell; white-space: nowrap; line-height: 1.5; max-width: 200px; text-align: center;" xmlns="http://www.w3.org/1999/xhtml"><span class="nodeLabel"><p>q17</p></span></div></foreignObject></g></g><g transform="translate(746.6171875, 292.3671875)" id="flowchart-q18-271" class="node default"><circle cy="0" cx="0" r="15.8515625" style="" class="basic label-container"></circle><g transform="translate(-12.8515625, -12)" style="" class="label"><rect></rect><foreignObject height="24" width="25.703125"><div style="display: table-cell; white-space: nowrap; line-height: 1.5; max-width: 200px; text-align: center;" xmlns="http://www.w3.org/1999/xhtml"><span class="nodeLabel"><p>q18</p></span></div></foreignObject></g></g><g transform="translate(746.6171875, 346.0703125)" id="flowchart-q19-272" class="node default"><circle cy="0" cx="0" r="15.8515625" style="" class="basic label-container"></circle><g transform="translate(-12.8515625, -12)" style="" class="label"><rect></rect><foreignObject height="24" width="25.703125"><div style="display: table-cell; white-space: nowrap; line-height: 1.5; max-width: 200px; text-align: center;" xmlns="http://www.w3.org/1999/xhtml"><span class="nodeLabel"><p>q19</p></span></div></foreignObject></g></g><g transform="translate(746.6171875, 399.7734375)" id="flowchart-q20-273" class="node default"><circle cy="0" cx="0" r="15.8515625" style="" class="basic label-container"></circle><g transform="translate(-12.8515625, -12)" style="" class="label"><rect></rect><foreignObject height="24" width="25.703125"><div style="display: table-cell; white-space: nowrap; line-height: 1.5; max-width: 200px; text-align: center;" xmlns="http://www.w3.org/1999/xhtml"><span class="nodeLabel"><p>q20</p></span></div></foreignObject></g></g><g transform="translate(852.5390625, 191.25390625)" id="flowchart-q21-274" class="node default"><circle cy="0" cx="0" r="15.8515625" style="" class="basic label-container"></circle><g transform="translate(-12.8515625, -12)" style="" class="label"><rect></rect><foreignObject height="24" width="25.703125"><div style="display: table-cell; white-space: nowrap; line-height: 1.5; max-width: 200px; text-align: center;" xmlns="http://www.w3.org/1999/xhtml"><span class="nodeLabel"><p>q21</p></span></div></foreignObject></g></g><g transform="translate(595.3828125, 287.95703125)" id="flowchart-q22-275" class="node default"><g style="" class="basic label-container"><circle cy="0" cx="0" r="20.8515625" style="" class="outer-circle"></circle><circle cy="0" cx="0" r="15.8515625" style="" class="inner-circle"></circle></g><g transform="translate(-12.8515625, -12)" style="" class="label"><rect></rect><foreignObject height="24" width="25.703125"><div style="display: table-cell; white-space: nowrap; line-height: 1.5; max-width: 200px; text-align: center;" xmlns="http://www.w3.org/1999/xhtml"><span class="nodeLabel"><p>q22</p></span></div></foreignObject></g></g></g></g></g></svg>